<?xml version="1.0" encoding="UTF-8" standalone="no"?>
<!-- Generator: Adobe Illustrator 18.1.1, SVG Export Plug-In . SVG Version: 6.00 Build 0)  -->

<svg
   xmlns:dc="http://purl.org/dc/elements/1.1/"
   xmlns:cc="http://creativecommons.org/ns#"
   xmlns:rdf="http://www.w3.org/1999/02/22-rdf-syntax-ns#"
   xmlns:svg="http://www.w3.org/2000/svg"
   xmlns="http://www.w3.org/2000/svg"
   xmlns:sodipodi="http://sodipodi.sourceforge.net/DTD/sodipodi-0.dtd"
   xmlns:inkscape="http://www.inkscape.org/namespaces/inkscape"
   version="1.1"
   id="Capa_1"
   x="0px"
   y="0px"
   viewBox="0 0 612 612"
   style="enable-background:new 0 0 612 612;"
   xml:space="preserve"
   sodipodi:docname="windrose-compass.svg"
   inkscape:version="0.92.2 (5c3e80d, 2017-08-06)"><metadata
     id="metadata69"><rdf:RDF><cc:Work
         rdf:about=""><dc:format>image/svg+xml</dc:format><dc:type
           rdf:resource="http://purl.org/dc/dcmitype/StillImage" /><dc:title></dc:title></cc:Work></rdf:RDF></metadata><defs
     id="defs67" /><sodipodi:namedview
     pagecolor="#ffffff"
     bordercolor="#666666"
     borderopacity="1"
     objecttolerance="10"
     gridtolerance="10"
     guidetolerance="10"
     inkscape:pageopacity="0"
     inkscape:pageshadow="2"
     inkscape:window-width="1680"
     inkscape:window-height="987"
     id="namedview65"
     showgrid="false"
     inkscape:zoom="0.62286816"
     inkscape:cx="294.12243"
     inkscape:cy="228.76003"
     inkscape:window-x="-8"
     inkscape:window-y="194"
     inkscape:window-maximized="1"
     inkscape:current-layer="Capa_1" /><circle
     style="opacity:1;fill:#f9f9f9;fill-opacity:1;stroke:#585858;stroke-width:32.23514175;stroke-linecap:round;stroke-linejoin:round;stroke-miterlimit:4;stroke-dasharray:none;stroke-dashoffset:0;stroke-opacity:1;paint-order:markers fill stroke"
     id="path4596"
     cx="306"
     cy="306"
     r="289.88242" /><path
     d="m 481.263,298.786 -109.906,-26.657 33.231,-54.516 c 1.783,-2.924 1.333,-6.691 -1.089,-9.113 -2.422,-2.42 -6.187,-2.872 -9.113,-1.089 l -54.513,33.233 -26.655,-109.909 c -0.808,-3.329 -3.788,-5.674 -7.215,-5.674 -3.426,0 -6.406,2.345 -7.215,5.674 l -26.657,109.907 -54.513,-33.231 c -2.923,-1.782 -6.689,-1.332 -9.113,1.089 -2.422,2.422 -2.872,6.187 -1.089,9.113 l 33.231,54.516 -109.907,26.657 c -3.329,0.808 -5.674,3.788 -5.674,7.215 0,3.426 2.345,6.406 5.674,7.215 l 109.907,26.657 -33.231,54.516 c -1.783,2.926 -1.333,6.691 1.089,9.113 1.431,1.432 3.333,2.174 5.253,2.174 1.328,0 2.665,-0.355 3.862,-1.083 l 54.513,-33.231 26.657,109.909 c 0.808,3.329 3.788,5.674 7.215,5.674 3.426,0 6.406,-2.345 7.215,-5.674 l 26.655,-109.909 54.513,33.231 c 1.197,0.729 2.534,1.083 3.862,1.083 1.918,0 3.821,-0.741 5.253,-2.174 2.422,-2.422 2.872,-6.187 1.089,-9.113 L 371.363,339.873 481.27,313.216 c 3.329,-0.808 5.674,-3.788 5.674,-7.215 -0.009,-3.427 -2.352,-6.407 -5.681,-7.215 z"
     id="path4"
     inkscape:connector-curvature="0"
     style="fill:#ff7300;fill-opacity:1" /><path
     d="m 415.353,116.591 c 0.817,0.473 1.711,0.698 2.593,0.698 1.796,0 3.543,-0.932 4.504,-2.599 l 11.604,-20.096 c 1.436,-2.485 0.585,-5.663 -1.902,-7.098 -2.483,-1.436 -5.663,-0.583 -7.098,1.902 l -11.604,20.096 c -1.433,2.483 -0.582,5.661 1.903,7.097 z"
     id="path6"
     inkscape:connector-curvature="0"
     style="fill:#ff7300;fill-opacity:1" /><path
     d="m 499.913,199.246 c 0.882,0 1.774,-0.225 2.593,-0.698 L 522.6,186.946 c 2.485,-1.434 3.336,-4.612 1.902,-7.098 -1.434,-2.485 -4.612,-3.338 -7.098,-1.902 l -20.094,11.602 c -2.485,1.434 -3.336,4.612 -1.902,7.098 0.962,1.667 2.709,2.6 4.505,2.6 z"
     id="path8"
     inkscape:connector-curvature="0"
     style="fill:#ff7300;fill-opacity:1" /><path
     d="m 553.109,300.803 h -23.204 c -2.87,0 -5.197,2.327 -5.197,5.197 0,2.87 2.327,5.197 5.197,5.197 h 23.204 c 2.87,0 5.197,-2.327 5.197,-5.197 0,-2.87 -2.327,-5.197 -5.197,-5.197 z"
     id="path10"
     inkscape:connector-curvature="0"
     style="fill:#ff7300;fill-opacity:1" /><path
     d="m 522.601,425.055 -20.096,-11.604 c -2.485,-1.436 -5.663,-0.583 -7.098,1.902 -1.436,2.485 -0.585,5.663 1.902,7.098 l 20.096,11.604 c 0.817,0.473 1.711,0.698 2.593,0.698 1.796,0 3.543,-0.932 4.504,-2.599 1.435,-2.485 0.584,-5.663 -1.901,-7.099 z"
     id="path12"
     inkscape:connector-curvature="0"
     style="fill:#ff7300;fill-opacity:1" /><path
     d="m 422.449,497.309 c -1.434,-2.485 -4.611,-3.338 -7.099,-1.9 -2.485,1.436 -3.336,4.614 -1.9,7.099 l 11.605,20.094 c 0.963,1.666 2.708,2.599 4.504,2.599 0.882,0 1.774,-0.225 2.593,-0.698 2.485,-1.436 3.336,-4.614 1.9,-7.099 z"
     id="path14"
     inkscape:connector-curvature="0"
     style="fill:#ff7300;fill-opacity:1" /><path
     d="m 306,524.704 c -2.87,0 -5.197,2.327 -5.197,5.197 v 23.207 c 0,2.87 2.327,5.197 5.197,5.197 2.87,0 5.197,-2.327 5.197,-5.197 v -23.207 c 0,-2.87 -2.327,-5.197 -5.197,-5.197 z"
     id="path16"
     inkscape:connector-curvature="0"
     style="fill:#ff7300;fill-opacity:1" /><path
     d="m 196.645,495.409 c -2.485,-1.436 -5.663,-0.583 -7.098,1.902 l -11.602,20.094 c -1.436,2.485 -0.585,5.663 1.902,7.097 0.819,0.473 1.711,0.698 2.593,0.698 1.796,0 3.543,-0.932 4.504,-2.599 l 11.602,-20.094 c 1.437,-2.486 0.586,-5.664 -1.901,-7.098 z"
     id="path18"
     inkscape:connector-curvature="0"
     style="fill:#ff7300;fill-opacity:1" /><path
     d="m 109.495,413.453 -20.096,11.604 c -2.485,1.434 -3.336,4.612 -1.902,7.098 0.963,1.666 2.708,2.599 4.504,2.599 0.882,0 1.774,-0.225 2.593,-0.698 l 20.096,-11.604 c 2.485,-1.434 3.336,-4.612 1.902,-7.098 -1.433,-2.486 -4.612,-3.339 -7.097,-1.901 z"
     id="path20"
     inkscape:connector-curvature="0"
     style="fill:#ff7300;fill-opacity:1" /><path
     d="M 82.095,300.803 H 58.889 c -2.87,0 -5.197,2.327 -5.197,5.197 0,2.87 2.327,5.197 5.197,5.197 h 23.206 c 2.87,0 5.197,-2.327 5.197,-5.197 -0.002,-2.87 -2.329,-5.197 -5.197,-5.197 z"
     id="path22"
     inkscape:connector-curvature="0"
     style="fill:#ff7300;fill-opacity:1" /><path
     d="M 114.691,189.548 94.595,177.946 c -2.487,-1.432 -5.663,-0.583 -7.099,1.902 -1.434,2.485 -0.583,5.663 1.902,7.099 l 20.096,11.602 c 0.819,0.471 1.711,0.696 2.593,0.696 1.796,0 3.543,-0.932 4.506,-2.599 1.436,-2.486 0.583,-5.664 -1.902,-7.098 z"
     id="path24"
     inkscape:connector-curvature="0"
     style="fill:#ff7300;fill-opacity:1" /><path
     d="m 189.548,114.689 c 0.963,1.666 2.708,2.599 4.504,2.599 0.882,0 1.774,-0.225 2.593,-0.698 2.485,-1.434 3.336,-4.612 1.902,-7.098 L 186.945,89.396 c -1.434,-2.485 -4.612,-3.338 -7.098,-1.902 -2.485,1.434 -3.336,4.612 -1.902,7.098 z"
     id="path26"
     inkscape:connector-curvature="0"
     style="fill:#ff7300;fill-opacity:1" /><path
     d="m 306,87.29 c 2.87,0 5.197,-2.327 5.197,-5.197 V 58.889 c 0,-2.87 -2.327,-5.197 -5.197,-5.197 -2.87,0 -5.197,2.327 -5.197,5.197 v 23.204 c 0,2.87 2.327,5.197 5.197,5.197 z"
     id="path28"
     inkscape:connector-curvature="0"
     style="fill:#ff7300;fill-opacity:1" /><g
     id="g34"
     style="fill:#ff7300;fill-opacity:1" /><g
     id="g36"
     style="fill:#ff7300;fill-opacity:1" /><g
     id="g38"
     style="fill:#ff7300;fill-opacity:1" /><g
     id="g40"
     style="fill:#ff7300;fill-opacity:1" /><g
     id="g42"
     style="fill:#ff7300;fill-opacity:1" /><g
     id="g44"
     style="fill:#ff7300;fill-opacity:1" /><g
     id="g46"
     style="fill:#ff7300;fill-opacity:1" /><g
     id="g48"
     style="fill:#ff7300;fill-opacity:1" /><g
     id="g50"
     style="fill:#ff7300;fill-opacity:1" /><g
     id="g52"
     style="fill:#ff7300;fill-opacity:1" /><g
     id="g54"
     style="fill:#ff7300;fill-opacity:1" /><g
     id="g56"
     style="fill:#ff7300;fill-opacity:1" /><g
     id="g58"
     style="fill:#ff7300;fill-opacity:1" /><g
     id="g60"
     style="fill:#ff7300;fill-opacity:1" /><g
     id="g62"
     style="fill:#ff7300;fill-opacity:1" /></svg>